<svg width="90" height="90" viewBox="0 1 90 90" xmlns="http://www.w3.org/2000/svg">
 <g>
  <title>Layer 1</title>
  <path d="m87.52071,32.62506l-0.92347,-5.12806c-0.25975,-1.44298 -1.6335,-2.40571 -3.07869,-2.15874c-8.09429,1.38389 -22.27981,2.30207 -38.47059,2.30207c-16.39762,0 -30.73925,-0.94244 -38.78547,-2.35367c-0.71399,-0.12525 -1.44828,0.04542 -2.03438,0.47232c-0.5861,0.4269 -0.97463,1.07342 -1.0743,1.79138l-0.6915,4.98605c-0.10011,0.72281 0.09967,1.45489 0.55303,2.02688c0.45336,0.57155 1.12105,0.93229 1.84783,0.99977c6.50489,0.60418 14.29489,4.05111 21.28754,9.98799c6.24778,5.29035 10.65832,11.52579 12.71739,17.29728c0.40749,1.14177 1.48929,1.90516 2.70118,1.90516l8.46871,0c1.21189,0 2.29237,-0.76162 2.70074,-1.90296c2.06437,-5.77193 6.47446,-12.00825 12.71607,-17.29949c6.48946,-5.49895 13.65101,-8.86473 19.84058,-9.81246c0.71223,-0.10893 1.35037,-0.50143 1.76933,-1.08753c0.41852,-0.5861 0.5839,-1.31685 0.456,-2.026l0,0.00001z" id="svg_6" stroke="null"/>
  <g id="svg_8" transform="matrix(0.44100964029442835,0,0,0.44100964029442835,0,0) "/>
  <g id="svg_9" transform="matrix(0.44100964029442835,0,0,0.44100964029442835,0,0) "/>
  <g id="svg_10" transform="matrix(0.44100964029442835,0,0,0.44100964029442835,0,0) "/>
  <g id="svg_11" transform="matrix(0.44100964029442835,0,0,0.44100964029442835,0,0) "/>
  <g id="svg_12" transform="matrix(0.44100964029442835,0,0,0.44100964029442835,0,0) "/>
  <g id="svg_13" transform="matrix(0.44100964029442835,0,0,0.44100964029442835,0,0) "/>
  <g id="svg_14" transform="matrix(0.44100964029442835,0,0,0.44100964029442835,0,0) "/>
  <g id="svg_15" transform="matrix(0.44100964029442835,0,0,0.44100964029442835,0,0) "/>
  <g id="svg_16" transform="matrix(0.44100964029442835,0,0,0.44100964029442835,0,0) "/>
  <g id="svg_17" transform="matrix(0.44100964029442835,0,0,0.44100964029442835,0,0) "/>
  <g id="svg_18" transform="matrix(0.44100964029442835,0,0,0.44100964029442835,0,0) "/>
  <g id="svg_19" transform="matrix(0.44100964029442835,0,0,0.44100964029442835,0,0) "/>
  <g id="svg_20" transform="matrix(0.44100964029442835,0,0,0.44100964029442835,0,0) "/>
  <g id="svg_21" transform="matrix(0.44100964029442835,0,0,0.44100964029442835,0,0) "/>
  <g id="svg_22" transform="matrix(0.44100964029442835,0,0,0.44100964029442835,0,0) "/>
 </g>

</svg>