<svg width="90" height="90" viewBox="0 1 90 90" xmlns="http://www.w3.org/2000/svg">
 <g>
  <title>Layer 1</title>
  <path stroke="null" d="m22.7473,79.52614c6.1622,0 11.64437,-2.36682 15.15224,-5.15184c1.21991,-0.96845 2.7323,-1.49796 4.28975,-1.49796l5.62818,0c1.56151,0 3.06758,0.52681 4.2902,1.49796c3.50697,2.78502 8.98778,5.15139 15.14954,5.15139c10.58399,0 19.16979,-8.18472 19.16979,-18.27435c0,-5.75211 -1.39431,-11.82734 -3.48083,-15.98775c-5.13742,-10.2415 -9.41365,-21.27479 -12.48844,-32.31258l-0.0009,-0.00361c-0.50067,-1.7981 -2.36502,-2.84947 -4.16266,-2.34879c-1.7981,0.50067 -2.84992,2.36457 -2.34879,4.16266l5.45243,19.57313c1.09869,3.9441 -0.42767,8.14687 -3.79899,10.46998c-6.39339,4.40647 -12.67276,11.1793 -15.6777,17.19054c-0.53627,1.073 -1.63541,1.75303 -2.83505,1.75303l-4.16492,0c-1.20008,0 -2.29787,-0.67913 -2.8346,-1.75303c-3.00584,-6.01169 -9.28747,-12.78542 -15.68311,-17.19189c-3.36952,-2.3213 -4.89813,-6.52948 -3.80034,-10.47088l5.45153,-19.57042c0.50112,-1.7981 -0.5507,-3.66199 -2.34879,-4.16266c-1.80035,-0.50067 -3.66199,0.55115 -4.16266,2.34879c-3.10769,11.15632 -7.29739,21.96338 -12.48979,32.31438c-2.08697,4.15996 -3.48038,10.23609 -3.48038,15.9891c0,10.09008 8.58625,18.2748 19.1743,18.2748z" id="svg_3"/>
  <g id="svg_4"/>
  <g id="svg_5"/>
  <g id="svg_6"/>
  <g id="svg_7"/>
  <g id="svg_8"/>
  <g id="svg_9"/>
  <g id="svg_10"/>
  <g id="svg_11"/>
  <g id="svg_12"/>
  <g id="svg_13"/>
  <g id="svg_14"/>
  <g id="svg_15"/>
  <g id="svg_16"/>
  <g id="svg_17"/>
  <g id="svg_18"/>
 </g>

</svg>