<?xml version="1.0" encoding="iso-8859-1"?>
<!-- Generator: Adobe Illustrator 18.0.0, SVG Export Plug-In . SVG Version: 6.00 Build 0)  -->
<!DOCTYPE svg PUBLIC "-//W3C//DTD SVG 1.1//EN" "http://www.w3.org/Graphics/SVG/1.1/DTD/svg11.dtd">
<svg version="1.1" id="Capa_1" xmlns="http://www.w3.org/2000/svg" xmlns:xlink="http://www.w3.org/1999/xlink" x="0px" y="0px"
	 viewBox="0 0 301.166 301.166" style="enable-background:new 0 0 301.166 301.166;" xml:space="preserve">
<g>
	<path d="M247,228.314l-2.094-11.628c-0.589-3.272-3.704-5.455-6.981-4.895c-18.354,3.138-50.52,5.22-87.233,5.22
		c-37.182,0-69.702-2.137-87.947-5.337c-1.619-0.284-3.284,0.103-4.613,1.071c-1.329,0.968-2.21,2.434-2.436,4.062l-1.568,11.306
		c-0.227,1.639,0.226,3.299,1.254,4.596c1.028,1.296,2.542,2.114,4.19,2.267c14.75,1.37,32.414,9.186,48.27,22.648
		c14.167,11.996,24.168,26.135,28.837,39.222c0.924,2.589,3.377,4.32,6.125,4.32h19.203c2.748,0,5.198-1.727,6.124-4.315
		c4.681-13.088,14.681-27.229,28.834-39.227c14.715-12.469,30.954-20.101,44.989-22.25c1.615-0.247,3.062-1.137,4.012-2.466
		C246.915,231.579,247.29,229.922,247,228.314z"/>
	<path d="M101.303,153.225c13.674,0,25.839-5.252,33.623-11.432c2.707-2.149,6.063-3.324,9.519-3.324h12.489
		c3.465,0,6.807,1.169,9.52,3.324c7.782,6.18,19.944,11.431,33.617,11.431c23.486,0,42.538-18.162,42.538-40.551
		c0-12.764-3.094-26.245-7.724-35.477c-11.4-22.726-20.889-47.209-27.712-71.702l-0.002-0.008c-1.111-3.99-5.248-6.323-9.237-5.212
		c-3.99,1.111-6.324,5.247-5.212,9.237l12.099,43.433c2.438,8.752-0.949,18.078-8.43,23.233
		c-14.187,9.778-28.121,24.807-34.789,38.146c-1.19,2.381-3.629,3.89-6.291,3.89h-9.242c-2.663,0-5.099-1.507-6.29-3.89
		c-6.67-13.34-20.609-28.371-34.801-38.149c-7.477-5.151-10.869-14.489-8.433-23.235l12.097-43.427
		c1.112-3.99-1.222-8.126-5.212-9.237c-3.995-1.111-8.126,1.223-9.237,5.212c-6.896,24.756-16.193,48.737-27.715,71.706
		c-4.631,9.231-7.723,22.714-7.723,35.48C58.755,135.063,77.808,153.225,101.303,153.225z"/>
</g>
<g>
</g>
<g>
</g>
<g>
</g>
<g>
</g>
<g>
</g>
<g>
</g>
<g>
</g>
<g>
</g>
<g>
</g>
<g>
</g>
<g>
</g>
<g>
</g>
<g>
</g>
<g>
</g>
<g>
</g>
</svg>
